<?xml version="1.0" encoding="UTF-8"?>
<svg id="Layer_1" xmlns="http://www.w3.org/2000/svg" xmlns:xlink="http://www.w3.org/1999/xlink" version="1.1" viewBox="0 0 1400 1400">
  <!-- Generator: Adobe Illustrator 29.2.1, SVG Export Plug-In . SVG Version: 2.1.0 Build 116)  -->
  <defs>
    <style>
      .st0 {
        fill: #5b3506;
      }

      .st1 {
        fill: #f8f8f8;
      }

      .st2 {
        fill: #301c03;
      }

      .st3 {
        fill: #fefefe;
      }

      .st4 {
        fill: #010100;
      }

      .st5 {
        fill: #c2c2c2;
      }

      .st6 {
        fill: #ff9410;
      }
    </style>
  </defs>
  <path class="st6" d="M786,1401H1c0-466.67,0-933.33,0-1400,466.67,0,933.33,0,1400,0,0,466.67,0,933.33,0,1400-204.83,0-409.67,0-615,0M705.05,1141.63c.63.81,1.26,1.62,1.95,2.38,0,0-.07.04,0,.71,1,1.42,2.01,2.85,3,4.28,0,0,.01,0,.09.68,1.63,2.44,3.27,4.89,4.91,7.32,0,0-.02.01.06.72,2.99,4.76,5.97,9.51,8.94,14.28,0,0,.02,0,.07.66.97,1.45,1.94,2.91,2.93,4.34,0,0-.03.02.03.71,1.33,2.09,2.65,4.18,3.96,6.29,0,0,.02,0,.07.69,1.31,2.1,2.63,4.2,4.05,6.87.33.47.66.95,1.02,2.09.94,1.46,1.89,2.93,2.87,4.36,0,0-.04.02.02.73,1.64,2.77,3.28,5.55,4.98,8.27,0,0-.07.03-.02.72.94,1.53,1.89,3.06,2.9,4.96,0,0,.24.28.27.99,1.61,2.78,3.22,5.57,4.86,8.32,0,0-.04.02-.04.62.35.46.69.92,1.16,2.05.99,1.77,1.98,3.54,2.98,6.01,1.25,2.2,2.49,4.4,3.8,6.98,0,0,.23.31.26,1.03,2.97,5.77,5.93,11.53,8.95,17.87.31.48.61.95.93,2.17,1.92,3.87,3.84,7.74,5.87,12.26.46.99.91,1.97,1.42,3.67,2.03,4.47,4.06,8.94,6.38,14.04,2.74-1.39,5.01-2.54,7.97-3.79,1.77-.97,3.55-1.93,6.02-2.94,2.13-1.31,4.25-2.61,6.93-4.03.44-.34.89-.67,1.96-1.03.82-.62,1.65-1.24,3.02-1.98.44-.34.89-.68,2-1.08,1.78-1.29,3.56-2.58,5.37-3.84,0,0-.02-.04.66-.13,2.13-1.61,4.27-3.22,6.35-4.87,0,0,.03.06.67-.04,1.13-.97,2.26-1.93,3.33-2.96,0,0,.05.07.68-.04,1.12-.97,2.25-1.94,3.32-2.96,0,0,.04.07.68-.04,1.11-.99,2.21-1.97,3.32-2.96,0,0,0,0,.64-.12,1.44-1.3,2.89-2.59,4.8-4.04.31-.17.51-.42,1.23-.91,1.41-1.32,2.83-2.64,4.78-4.17.53-.55,1.06-1.11,2.24-1.84,2.42-2.31,4.84-4.63,7.85-7.2,1.5-1.54,3.01-3.07,5.15-4.81,2.81-2.95,5.61-5.9,8.99-9.15,1.76-1.93,3.52-3.87,5.92-6.02,2.49-2.9,4.99-5.79,8-8.95.45-.62.91-1.23,1.97-2.09,1.49-1.89,2.97-3.78,4.9-5.9.26-.23.43-.51,1.09-1.09,1.16-1.56,2.31-3.12,3.92-4.91.15-.29.31-.58,1.06-1.12.84-1.21,1.69-2.42,3.04-3.92.54-.79,1.08-1.59,2.19-2.65.42-.7.83-1.39,1.22-2.11,0,0,.02.03.63-.23,1.11-1.6,2.22-3.2,3.38-4.78,0,0-.04-.04.55-.3.8-1.24,1.61-2.48,2.45-3.69,0,0-.03-.03.56-.3.8-1.24,1.59-2.49,2.44-3.71,0,0-.04-.04.53-.31.5-.89,1.01-1.77,1.47-2.68,0,0,.03.04.62-.23.78-1.26,1.56-2.53,2.38-3.78,0,0-.03-.03.56-.33,1.17-1.87,2.35-3.74,3.44-5.66,0,0,.07.07.65-.21.75-1.28,1.51-2.56,2.35-3.83,0,0-.06-.06.52-.38,2.84-4.52,5.69-9.04,8.47-13.58,0,0,.05.05.63-.27,1.09-1.93,2.18-3.85,3.69-6.16.24-.5.48-1,1.28-1.8.46-.93.92-1.86,1.4-2.78,0,0-.02-.02.55-.36,1.43-2.56,2.85-5.12,4.53-7.97,0,0,.09-.38.64-.72.44-.97.89-1.94,1.26-2.94,0,0,.05.05.61-.24.42-.93.85-1.86,1.52-3.07,0,0,.08-.36.65-.74,1.39-2.66,2.78-5.32,4.58-8.38.22-.52.44-1.05,1.21-1.91.76-1.57,1.51-3.14,2.51-5.01,0,0,.08-.38.65-.76.76-1.63,1.51-3.26,2.7-5.27.2-.53.39-1.06,1.16-1.95,4.8-9.89,9.6-19.78,14.85-30.13.49-1.19.97-2.37,1.96-4.01,1.1-2.53,2.2-5.06,3.63-8.15.3-.8.59-1.6,1.41-2.85,1.86-4.5,3.72-9.01,5.99-13.92.16-.54.33-1.08.97-2.05.45-1.2.89-2.4,1.65-4.17.28-.8.57-1.6,1.35-2.89,6.93-18.16,14.28-36.17,20.72-54.51,23.1-65.71,39.51-133.18,51.8-201.67,2.87-16.01,4.62-32.23,7.03-49-.02-.44-.03-.89.32-2.04.85-10.77,1.7-21.54,2.68-33.05-.02-.75-.04-1.5.25-2.99.2-5.76.4-11.52.72-18.14,0-2.04-.02-4.08.27-6.86-.09-10.07-.19-20.13-.18-31.08-.07-2.37-.14-4.73-.02-8.03-.37-6.03-.74-12.06-1.01-18.83-.06-.75-.11-1.5,0-3.16-1.03-11.03-2.06-22.07-3-33.76-.06-.44-.12-.88-.03-2.13-.34-2.07-.69-4.14-.95-6.87-.06-.44-.13-.88-.05-2.18-.67-5.28-1.18-10.59-2.04-15.83-1.89-11.46-3.96-22.89-5.91-34.99-.08-.43-.16-.87-.14-2.12-7.9-42.22-18.69-83.69-32.91-124.21-6.42-18.31-13.77-36.29-20.78-54.96-.14-.33-.28-.67-.45-1.72-1.27-2.77-2.55-5.54-3.87-8.96-.38-.77-.75-1.55-1.16-3.04-1.92-4.11-3.83-8.22-5.8-12.97-.38-.77-.76-1.54-1.16-3-.94-1.78-1.87-3.57-2.89-6.03-.7-1.43-1.4-2.86-2.14-5-1.92-3.78-3.83-7.56-5.84-12.01-.95-1.78-1.9-3.56-2.82-5.94-.34-.47-.68-.94-1.12-2.08-.96-1.78-1.91-3.55-2.85-5.93-.34-.46-.67-.93-1.13-2.07-.97-1.77-1.94-3.54-2.9-5.92-.35-.46-.7-.92-1.14-2.03-.64-1.11-1.29-2.23-1.95-4.06-2.3-4.11-4.6-8.22-6.99-12.89-.32-.47-.63-.93-.99-2.11-1.64-2.77-3.29-5.54-4.94-8.3,0,0,.01,0-.03-.71-1.31-2.11-2.62-4.23-3.97-6.3,0,0,.05-.02,0-.72-1.32-2.11-2.63-4.21-3.99-6.28,0,0,.05-.03-.01-.72-1.34-2.08-2.67-4.16-3.98-6.26,0,0-.04.01-.08-.66-.98-1.44-1.96-2.88-2.92-4.34,0,0-.03.01-.1-.68-1.63-2.45-3.25-4.91-4.91-7.33,0,0,.04-.02-.04-.72-3.62-5.44-7.24-10.88-10.97-16.98-1.33-1.76-2.65-3.51-4.12-5.29,0,0,.18-.02.27.7.68,1.82,1.37,3.64,2.19,6.25,1.22,3.43,2.4,6.88,3.66,10.3,12.67,34.23,23.32,69.03,29.06,105.15,2.03,12.8,3.4,25.71,4.98,39.31.07.74.14,1.49.06,3.13.67,7.71,1.35,15.42,1.92,23.79.05.44.1.89-.03,2.25.38,6.03.75,12.05,1.03,18.88.06,1.07.11,2.13-.02,4.12.11,15.39.22,30.78.17,46.93-.02.51-.04,1.02-.58,1.75-.19,0-.37.01-.86-.44-.16-.09-.32-.17-.69-.85-.66-.47-1.31-.93-2.19-1.83-.22-.26-.5-.41-1.09-1.05-1.24-.81-2.49-1.62-3.75-2.4,0,0,.03-.03-.27-.62-1.92-1.1-3.85-2.2-6.23-3.74-1.15-.55-2.3-1.11-3.79-2.23-1.59-.7-3.19-1.4-5.34-2.43-.8-.3-1.6-.59-2.86-1.41-4.47-1.74-8.87-3.69-13.43-5.17-21.84-7.09-44.2-11.59-67.78-13.34-.44.02-.89.03-2.04-.29-3.1-.19-6.2-.37-10.1-.69-1.06.01-2.13.02-3.93-.29-12.4.12-24.8.23-37.95.25-.75.06-1.49.12-3.1.01-2.72.35-5.44.7-8.83.96-.44.06-.88.12-2.16.04-2.75.41-5.5.82-9,1.19-1.44-1.23-3.2-2.22-4.26-3.71-6.43-9.12-12.7-18.35-19.02-27.54-28.69-41.7-56.73-83.87-86.27-124.96-22.38-31.14-47.58-60.1-76.66-85.37-11.46-9.96-23.45-19.25-37.8-24.84-2.43-.95-5.09-1.29-8.9-2.21,1.6,2.64,2.29,3.94,3.13,5.14,37.4,53.08,66.89,110.39,90.56,170.73,26.75,68.2,44.39,138.64,52.42,211.55,4.32,39.2,4.14,78.17-2.73,116.96-15.7,88.66-52.79,168.12-104.76,241.07-.73,1.03-1.67,1.91-2.5,2.86-.07-2.01.54-3.51,1.23-4.98,5.64-11.87,11.21-23.78,17-35.58,1.58-3.23,1.53-5.55-.95-8.46-29.75-34.77-61.7-67.37-97.31-96.12-39.14-31.6-83.88-53.22-130.62-71.01-1.02-.39-2.17-.42-3.68-.69,0,2.53-.11,4.68.02,6.82,1.82,30.51.76,60.94-1.91,91.36-3.8,43.25-11.54,85.73-24.78,127.12-10.78,33.71-23.98,66.4-43.94,95.88-23.4,34.57-54.18,61.76-88.07,85.55-59.17,41.54-124.16,71.48-192.14,95.31-4.82,1.69-9.63,3.41-14.45,5.12,2.27,1.1,4.41,1.56,6.52,1.46,16.3-.78,32.64-1.12,48.87-2.63,45.5-4.22,89.48-15.06,132.08-31.63,49.94-19.42,94.2-47.99,134.45-83.05,53.05-46.21,100.91-96.5,128.18-163,.3-.73,2-.88,3.34-.73,1.25.8,2.5,1.61,3.77,2.39,0,0-.02.02.24.61,1.24.83,2.48,1.65,3.95,2.92.24.26.53.4,1.13,1.03,1.22.83,2.44,1.66,3.69,2.44,0,0-.04.04.22.64,1.58,1.15,3.16,2.3,4.97,3.89.23.26.51.41,1.11,1.06,1.56,1.16,3.12,2.32,4.9,3.93.23.26.51.42,1.1,1.07,1.55,1.18,3.1,2.36,4.92,4.04.62.45,1.23.89,2.09,1.95,1.89,1.5,3.77,2.99,5.93,5.01.62.46,1.24.91,2.08,1.99,2.21,1.83,4.43,3.67,6.94,6.04.95.78,1.9,1.56,3.07,2.95,2.54,2.18,5.07,4.36,7.93,7.11,2.3,2.08,4.6,4.16,7.13,6.86,5.51,5.19,11.03,10.38,16.85,16.16,2.88,2.79,5.76,5.57,8.85,9,5.99,6.06,11.98,12.11,18.26,18.76,1.86,1.86,3.72,3.71,5.76,6.22,2.97,3.09,5.94,6.17,9.13,9.8.57.51,1.15,1.02,1.9,2.18,2.63,2.75,5.26,5.51,8.11,8.8.56.52,1.12,1.04,1.86,2.21,1.98,2.08,3.95,4.17,6.14,6.79.56.52,1.11,1.05,1.84,2.22,1.65,1.75,3.3,3.5,5.11,5.72.26.2.52.4.94,1.25,1.95,2.12,3.9,4.23,5.86,6.34,0,0,0,0,.14.65,1.63,1.77,3.26,3.53,5.05,5.77.17.31.42.51.9,1.22,1,1.05,2,2.11,3.22,3.71.55.55,1.1,1.11,1.81,2.31,1.62,1.79,3.24,3.58,4.89,5.34,0,0-.04.03.1.67,1.3,1.44,2.61,2.88,3.9,4.33,0,0,0,0,.14.64,1.3,1.44,2.59,2.88,4.02,4.8.16.31.4.52.89,1.29,2.31,2.77,4.61,5.55,6.95,8.28,0,0-.05.03.07.66.97,1.11,1.95,2.23,2.93,3.33,0,0,0,0,.1.64.97,1.12,1.94,2.23,2.9,3.36,0,0,.02,0,.15.66,2.95,3.78,5.9,7.56,8.85,11.34,0,0,0,0,.1.64.96,1.13,1.91,2.26,2.9,3.36,0,0-.04.02.08.69,1.24,1.56,2.48,3.11,3.88,5.17.34.38.68.77,1.1,1.77.66.76,1.33,1.53,1.94,2.35,0,0,.08-.02.16.62.94,1.15,1.87,2.3,2.84,3.41,0,0-.04.02.04.65.65.78,1.31,1.57,1.96,2.35t.1.66c1.33,1.73,2.65,3.47,3.93,5.27,0,0,.09,0,.15.64.92,1.16,1.85,2.32,2.82,3.43,0,0-.06.04.01.66.65.79,1.3,1.59,1.99,2.34,0,0-.06.03.03.68.93,1.2,1.86,2.41,2.93,4.12.33.4.65.81,1.04,1.85.65.8,1.3,1.59,2,2.35,0,0-.05.03.02.66.64.8,1.28,1.61,1.98,2.35,0,0-.08.05.03.73,1.67,2.41,3.33,4.82,4.97,7.25,0,0,.04-.01.09.61.64.8,1.28,1.6,1.92,2.39,0,0,0,0,.05.63Z"/>
  <path class="st4" d="M513.11,914.95c-.95-.78-1.9-1.56-3.01-2.96-2.45-2.43-4.73-4.23-7.01-6.03-.62-.46-1.24-.91-2.01-1.98-2.11-2.08-4.06-3.54-6.01-5.01-.62-.45-1.23-.89-2.01-1.95-1.77-1.75-3.39-2.89-5.02-4.04-.34-.05-.63-.21-.99-1.05-1.76-1.7-3.39-2.83-5.02-3.95-.34-.04-.63-.19-.99-1.03-1.79-1.69-3.44-2.8-5.09-3.91,0,0,.04-.04,0-.37-1.33-1.12-2.62-1.91-3.9-2.69-.35-.04-.64-.19-1.01-1.02-1.45-1.36-2.76-2.15-4.07-2.93,0,0,.02-.02-.02-.37-1.37-1.1-2.7-1.86-4.03-2.62-1.04.42-2.74.58-3.04,1.31-27.27,66.5-75.14,116.8-128.18,163-40.25,35.06-84.51,63.63-134.45,83.05-42.6,16.57-86.57,27.41-132.08,31.63-16.23,1.51-32.57,1.85-48.87,2.63-2.11.1-4.25-.36-6.52-1.46,4.82-1.71,9.63-3.43,14.45-5.12,67.99-23.83,132.97-53.77,192.14-95.31,33.89-23.79,64.67-50.98,88.07-85.55,19.95-29.47,33.15-62.16,43.94-95.88,13.24-41.39,20.98-83.87,24.78-127.12,2.67-30.41,3.73-60.85,1.91-91.36-.13-2.13-.02-4.28-.02-6.82,1.51.27,2.66.31,3.68.69,46.74,17.79,91.48,39.41,130.62,71.01,35.61,28.75,67.56,61.36,97.31,96.12,2.49,2.9,2.54,5.23.95,8.46-5.79,11.8-11.36,23.71-17,35.58-.69,1.46-1.3,2.97-1.23,4.98.84-.95,1.77-1.83,2.5-2.86,51.97-72.94,89.06-152.4,104.76-241.07,6.87-38.79,7.05-77.76,2.73-116.96-8.03-72.91-25.67-143.36-52.42-211.55-23.67-60.34-53.16-117.64-90.56-170.73-.84-1.2-1.53-2.5-3.13-5.14,3.81.93,6.48,1.27,8.9,2.21,14.35,5.59,26.33,14.88,37.8,24.84,29.08,25.27,54.28,54.23,76.66,85.37,29.54,41.09,57.58,83.25,86.27,124.96,6.32,9.19,12.59,18.42,19.02,27.54,1.05,1.5,2.82,2.49,4.73,4.05,3.44-.24,6.41-.81,9.38-1.38.44-.06.88-.12,1.94.13,3.44-.16,6.25-.63,9.06-1.1.75-.06,1.49-.12,2.93.14,11.72.42,22.76.55,33.8.58,1.4,0,2.8-.54,4.21-.83,1.06-.01,2.13-.02,3.71.39,3.78.49,7.03.55,10.29.6.44-.02.89-.03,1.77.38,6.88,1.45,13.38,2.16,19.73,3.55,15.29,3.34,30.53,6.91,45.76,10.55,5.3,1.27,10.5,2.99,15.74,4.51.8.3,1.6.59,2.74,1.39,2.01,1.17,3.67,1.83,5.32,2.49,1.15.55,2.3,1.11,3.74,2.24,2.27,1.64,4.26,2.7,6.25,3.77,0,0-.03.03.01.37,1.35,1.11,2.65,1.89,3.96,2.66.34.04.62.19.98,1.01.85.99,1.55,1.43,2.25,1.86.16.09.32.17.76.63.55.2.83.02,1.1-.15.02-.51.04-1.02.5-2.05.74-1.24,1.3-1.97,1.31-2.7.05-13.86.08-27.72-.04-41.58,0-1.02-1.1-2.04-1.69-3.06-.06-1.07-.11-2.13.15-3.9.42-5.98.59-11.26.53-16.53-.01-.86-1.1-1.71-1.69-2.56-.05-.44-.1-.89.17-1.97.06-7.9-.16-15.15-.52-22.41-.03-.57-1.03-1.09-1.57-1.64-.07-.74-.14-1.49.1-2.91.09-4.28.2-7.94-.38-11.49-3.47-21.03-6.05-42.28-10.97-62.97-4.97-20.91-12.32-41.26-18.62-61.86-.51-1.66-.94-3.34-1.83-6.5,3.04,2.22,4.77,3.48,6.51,4.75,0,0-.04.02-.05.38,1.66,2.79,3.32,5.23,4.98,7.66,0,0,.03-.01,0,.36.98,1.8,1.99,3.22,2.99,4.64,0,0,.04-.01,0,.37,1.34,2.45,2.71,4.51,4.07,6.57,0,0-.05.03-.06.38,1.35,2.44,2.7,4.53,4.05,6.62,0,0-.05.02-.05.38,1.34,2.45,2.68,4.55,4.02,6.64,0,0-.01,0-.03.38,1.65,3.13,3.32,5.88,4.99,8.64.32.47.63.93.97,2.06,2.34,4.76,4.67,8.86,6.99,12.95.64,1.11,1.29,2.23,1.76,3.83.32,1.04.81,1.59,1.31,2.14.97,1.77,1.94,3.54,2.74,5.82.31,1.06.8,1.62,1.28,2.17.96,1.78,1.91,3.55,2.7,5.84.31,1.07.79,1.62,1.27,2.17.95,1.78,1.9,3.56,2.66,5.89,1.9,4.43,3.99,8.3,6.07,12.17.7,1.43,1.4,2.86,1.91,4.85.91,2.42,2,4.29,3.1,6.15.38.77.76,1.54.94,2.86,1.88,4.74,3.96,8.94,6.04,13.15.38.77.75,1.55.93,2.87,1.23,3.41,2.66,6.27,4.09,9.12.14.33.28.67.4,1.68.42,2.44.7,4.25,1.33,5.94,6.32,17.1,13.24,34,18.92,51.3,6.56,19.98,12.44,40.21,17.87,60.53,4.56,17.08,8,34.46,12.07,51.68.8,3.37,2.27,6.58,3.43,9.86.08.43.16.87-.04,1.9-.38,1.24-.64,1.91-.55,2.53,2.28,15.33,4.57,30.65,6.96,45.96.15.93,1.11,1.74,1.69,2.6.06.44.13.88-.11,1.92.17,2.76.64,4.92,1.1,7.08.06.44.12.88-.13,1.95.29,11.24.85,21.85,1.54,32.45.04.56,1.05,1.06,1.6,1.59.06.75.11,1.5-.14,2.93-.41,5.95-.58,11.22-.52,16.48.01.87,1.08,1.73,1.65,2.59.07,2.37.14,4.73-.12,7.85-.43,6.83-.67,12.9-.61,18.97.04,4.04.52,8.07.81,12.1,0,2.04.02,4.08-.4,6.68-.48,6.48-.54,12.4-.59,18.32.02.75.04,1.5-.38,2.74-1.01,4.63-1.87,8.75-2.1,12.9-.38,6.78-.36,13.57-.5,20.36.02.44.03.89-.38,1.78-.76.99-1.3,1.5-1.38,2.08-1.42,10.81-2.24,21.74-4.27,32.43-5.54,29.07-11.23,58.12-17.58,87.02-4.04,18.42-8.98,36.67-14.18,54.81-7.17,25-14.58,49.94-22.66,74.65-5.04,15.41-11.56,30.33-17.29,45.51-1.05,2.79-1.51,5.81-2.25,8.72-.28.8-.57,1.6-1.31,2.74-.87,1.65-1.27,2.95-1.68,4.26-.16.54-.33,1.08-1.04,1.88-2.35,4.88-4.15,9.5-5.95,14.12-.3.8-.59,1.6-1.37,2.75-1.54,2.99-2.6,5.62-3.65,8.24-.49,1.19-.97,2.37-2.02,3.85-3.8,6.52-7.15,12.7-10.22,19.01-1.77,3.62-3.1,7.46-4.62,11.2-.2.53-.39,1.06-1.16,1.84-1.28,1.97-1.99,3.68-2.7,5.4,0,0-.08.38-.52.6-1.17,1.85-1.9,3.49-2.63,5.14-.22.52-.44,1.05-1.22,1.82-1.91,3.01-3.25,5.76-4.59,8.51,0,0-.08.36-.54.56-.85,1.19-1.23,2.17-1.62,3.16,0,0-.05-.05-.39.02-.72,1.12-1.1,2.17-1.49,3.21,0,0-.09.38-.55.57-1.86,2.83-3.25,5.47-4.64,8.11,0,0,.02.02-.34.08-.77,1.04-1.19,2.03-1.6,3.02-.24.5-.48,1-1.27,1.75-1.61,2.24-2.67,4.24-3.72,6.24,0,0-.05-.05-.36,0-3.12,4.65-5.93,9.25-8.74,13.85,0,0,.06.06-.34.1-1.11,1.38-1.82,2.73-2.53,4.07,0,0-.07-.07-.39-.03-1.45,2-2.58,3.96-3.71,5.91,0,0,.03.03-.34.07-1.11,1.36-1.86,2.68-2.6,4.01,0,0-.03-.04-.36.01-.78,1-1.25,1.95-1.71,2.89,0,0,.04.04-.34.07-1.14,1.34-1.89,2.64-2.65,3.94,0,0,.03.03-.34.06-1.14,1.33-1.9,2.62-2.67,3.92,0,0,.04.04-.34.07-1.45,1.69-2.53,3.35-3.6,5.01,0,0-.02-.03-.36.03-.71.81-1.08,1.57-1.45,2.32-.54.79-1.08,1.59-2.24,2.54-1.41,1.44-2.22,2.72-3.02,4-.15.29-.31.58-1.04,1.01-1.7,1.76-2.82,3.38-3.95,5.01-.06.34-.22.63-1.06.99-2.03,2.09-3.49,4.05-4.94,6-.45.62-.91,1.23-1.97,1.99-3.08,3.1-5.55,6.07-8.02,9.03-1.76,1.93-3.52,3.87-5.93,5.96-3.42,3.17-6.21,6.18-8.99,9.19-1.5,1.54-3.01,3.07-5.17,4.73-3.05,2.5-5.45,4.87-7.84,7.25-.53.55-1.06,1.11-2.22,1.76-2.02,1.47-3.4,2.85-4.79,4.22-.09.34-.29.59-1.19.83-2.01,1.41-3.43,2.76-4.84,4.1,0,0,0,0-.36-.01-1.44,1.02-2.51,2.05-3.59,3.08,0,0-.04-.07-.38-.06-1.43,1.02-2.52,2.05-3.61,3.07,0,0-.05-.07-.38-.07-1.43,1.02-2.53,2.04-3.63,3.05,0,0-.03-.06-.38-.06-2.46,1.66-4.57,3.31-6.68,4.97,0,0,.02.04-.36.01-2.14,1.29-3.9,2.6-5.66,3.92-.44.34-.89.68-1.96,1.05-1.43.68-2.23,1.32-3.03,1.97-.44.34-.89.68-1.99,1.04-2.76,1.37-4.87,2.7-6.98,4.04-1.77.97-3.55,1.93-5.86,2.71-5.85,2.05-8.5-.28-10.12-5.31-.65-2.01-2.45-3.65-3.73-5.46-.46-.99-.91-1.97-1.37-3.68-1.96-4.57-3.92-8.42-5.88-12.28-.31-.48-.61-.95-.71-1.93-2.92-6.36-6.05-12.23-9.18-18.09,0,0-.23-.31-.22-.89-1.27-2.75-2.55-4.93-3.83-7.1-.99-1.77-1.98-3.54-2.8-5.81-.33-1.05-.83-1.6-1.32-2.14,0,0,.04-.02.05-.38-1.63-3.13-3.26-5.9-4.9-8.67,0,0-.24-.28-.22-.85-.97-2.07-1.97-3.57-2.96-5.07,0,0,.07-.03.07-.39-1.68-3.11-3.36-5.87-5.04-8.63,0,0,.04-.02.05-.37-.96-1.79-1.93-3.24-2.91-4.68-.33-.47-.66-.95-1.03-2.08-1.38-2.74-2.72-4.82-4.06-6.91,0,0-.02,0,0-.37-1.34-2.45-2.69-4.53-4.05-6.6,0,0,.03-.02.04-.37-.99-1.79-1.99-3.22-3-4.66,0,0-.02,0,0-.37-3-5.12-6.02-9.87-9.04-14.61,0,0,.02-.01.03-.38-1.66-2.79-3.33-5.22-5-7.64,0,0-.01,0,0-.37-1.02-1.78-2.05-3.18-3.09-4.58,0,0,.07-.04.07-.37-.67-1.11-1.34-1.9-2-2.68,0,0,0,0,.02-.35-.65-1.12-1.32-1.9-1.99-2.67,0,0-.04.01-.01-.37-1.68-2.78-3.39-5.16-5.09-7.55,0,0,.08-.05.07-.37-.69-1.1-1.37-1.87-2.05-2.65,0,0,.05-.03.06-.37-.68-1.11-1.37-1.87-2.06-2.64-.33-.4-.65-.81-1-1.85-1.01-1.81-2-2.97-2.99-4.14,0,0,.06-.03.06-.37-.69-1.1-1.37-1.86-2.06-2.63,0,0,.06-.04.06-.37-.96-1.47-1.92-2.6-2.88-3.74,0,0-.09,0-.07-.4-1.34-2.11-2.7-3.83-4.05-5.54,0,0,0,0,.01-.35-.67-1.11-1.36-1.86-2.05-2.62,0,0,.04-.02.05-.37-.97-1.46-1.95-2.58-2.93-3.7,0,0-.08.02-.05-.36-.66-1.12-1.36-1.85-2.05-2.59-.34-.38-.68-.77-1.07-1.78-1.35-2.15-2.65-3.68-3.95-5.21,0,0,.04-.02.04-.37-1-1.45-2-2.55-3.01-3.65,0,0,0,0,.01-.37-2.99-4.13-5.99-7.88-9-11.64,0,0-.02,0,0-.36-1-1.45-2.01-2.54-3.02-3.63,0,0,0,0,.02-.37-1.01-1.44-2.03-2.53-3.06-3.61,0,0,.05-.03.05-.38-2.37-3.1-4.74-5.85-7.11-8.6-.34-.1-.58-.31-.8-1.22-1.4-2.01-2.75-3.43-4.09-4.84,0,0,0,0,0-.36-1.34-1.78-2.7-3.19-4.06-4.6,0,0,.04-.03.04-.38-1.68-2.11-3.36-3.87-5.04-5.64-.55-.55-1.1-1.11-1.78-2.29-1.16-1.65-2.2-2.68-3.24-3.7-.34-.09-.59-.29-.84-1.2-1.76-2.34-3.44-4.08-5.12-5.82,0,0,0,0,.02-.37-2-2.45-4.01-4.54-6.03-6.63-.26-.2-.52-.4-.86-1.2-1.79-2.32-3.49-4.05-5.2-5.77-.56-.52-1.11-1.05-1.77-2.2-2.14-2.69-4.17-4.75-6.21-6.81-.56-.52-1.12-1.04-1.79-2.19-2.8-3.36-5.49-6.09-8.19-8.82-.57-.51-1.15-1.02-1.82-2.17-3.14-3.69-6.17-6.76-9.21-9.82-1.86-1.86-3.72-3.71-5.73-6.22-4.15-5.17-8.03-9.78-12.2-14.14-1.74-1.82-4.07-3.09-6.12-4.61-2.88-2.79-5.76-5.57-8.8-9.01-3.85-4.64-7.41-8.74-11.27-12.56-1.55-1.53-3.74-2.4-5.64-3.58-2.3-2.08-4.6-4.16-7.08-6.88-2.78-2.79-5.38-4.94-7.99-7.09M969.23,667.45c2.9,7.03,5.13,14.44,8.84,21.01,5.57,9.88,13.87,17.06,25.41,19.32,15.24,2.98,27.03-3.63,36.63-14.54,15.43-17.54,20.73-38.66,20.09-61.52-.41-14.73-3.99-28.66-12.56-40.88-8.02-11.45-18.66-18.61-33.23-17.47-11.99.94-21.37,7.32-28.6,16.48-18.01,22.8-22.19,48.78-16.59,77.6M905.71,686.21c18.23-20.04,24.64-44.11,23.6-70.53-.69-17.52-5.39-33.87-16.81-47.64-14.89-17.96-37.12-20.46-55.46-6.11-4.28,3.35-8.31,7.31-11.55,11.67-16.04,21.56-20.82,46.09-17.86,72.34,1.59,14.12,6.19,27.25,15.11,38.56,5.92,7.5,13.21,13.2,22.69,15.44,15.92,3.75,28.65-2.38,40.27-13.72Z"/>
  <path class="st2" d="M997.15,1022.73c.49-2.66.95-5.68,2-8.47,5.73-15.19,12.25-30.11,17.29-45.51,8.08-24.71,15.49-49.66,22.66-74.65,5.2-18.14,10.14-36.39,14.18-54.81,6.34-28.9,12.04-57.95,17.58-87.02,2.04-10.69,2.85-21.62,4.27-32.43.08-.58.62-1.09,1.31-1.75-1.9,16-3.65,32.22-6.53,48.23-12.29,68.49-28.7,135.96-51.8,201.67-6.44,18.33-13.79,36.35-20.97,54.75Z"/>
  <path class="st2" d="M944,177.62c-1.69-.91-3.43-2.18-6.47-4.39.89,3.16,1.32,4.84,1.83,6.5,6.3,20.6,13.65,40.94,18.62,61.86,4.92,20.69,7.5,41.94,10.97,62.97.58,3.55.47,7.21.42,11.12-1.93-12.56-3.29-25.46-5.33-38.27-5.74-36.13-16.39-70.92-29.06-105.15-1.26-3.42-2.45-6.86-3.25-10.73.73-.48,1.05-.52,1.37-.56,3.62,5.44,7.24,10.88,10.9,16.67Z"/>
  <path class="st2" d="M1067.79,495.65c-1.21-2.87-2.68-6.08-3.48-9.45-4.08-17.21-7.51-34.6-12.07-51.68-5.43-20.32-11.31-40.55-17.87-60.53-5.68-17.31-12.6-34.21-18.92-51.3-.62-1.69-.91-3.51-1.28-5.67,7,17.72,14.34,35.7,20.76,54.01,14.21,40.53,25,82,32.86,124.62Z"/>
  <path class="st2" d="M944.75,400.83c-5.01-1.26-10.21-2.98-15.51-4.25-15.22-3.64-30.47-7.22-45.76-10.55-6.35-1.39-12.85-2.1-19.4-3.48,22.8,1.26,45.17,5.76,67,12.84,4.56,1.48,8.96,3.44,13.66,5.43Z"/>
  <path class="st2" d="M1075.86,548.61c-.65-.43-1.61-1.24-1.76-2.17-2.39-15.31-4.68-30.63-6.96-45.96-.09-.62.17-1.29.53-2.2,2.26,11.17,4.33,22.6,6.22,34.06.86,5.25,1.37,10.55,1.97,16.26Z"/>
  <path class="st2" d="M972.08,368.42c.69.56,1.78,1.57,1.79,2.6.11,13.86.09,27.72.04,41.58,0,.73-.56,1.46-1.23,2.32-.47-15.25-.58-30.64-.6-46.5Z"/>
  <path class="st2" d="M847.61,380.95c-1.03.45-2.43.99-3.83.99-11.04-.03-22.07-.17-33.42-.54,12.09-.38,24.49-.5,37.26-.45Z"/>
  <path class="st2" d="M1079.89,593.59c-.64-.07-1.65-.57-1.69-1.13-.68-10.6-1.25-21.21-1.58-32.12,1.29,10.73,2.32,21.76,3.27,33.25Z"/>
  <path class="st2" d="M1077.08,715.62c-.04-6.43-.06-13.23.32-20.01.23-4.15,1.09-8.27,2.04-12.53-.48,10.64-1.33,21.41-2.36,32.54Z"/>
  <path class="st2" d="M1081.03,654.6c-.43-3.66-.92-7.69-.96-11.73-.07-6.07.17-12.15.55-18.53.36,9.76.46,19.82.41,30.26Z"/>
  <path class="st2" d="M965.3,1090.85c1.24-3.56,2.57-7.4,4.34-11.02,3.08-6.31,6.42-12.48,10-18.77-4.46,9.83-9.26,19.72-14.34,29.8Z"/>
  <path class="st2" d="M553.99,954.38c1.96,1.2,4.28,2.46,6.02,4.29,4.16,4.36,8.05,8.98,12.05,13.84-5.99-5.7-11.98-11.76-18.07-18.13Z"/>
  <path class="st2" d="M528.28,929.23c1.79.86,3.98,1.74,5.53,3.27,3.86,3.81,7.43,7.92,11.12,12.26-5.51-4.84-11.02-10.03-16.65-15.53Z"/>
  <path class="st2" d="M969.16,319.4c.62.1,1.62.62,1.65,1.19.36,7.25.58,14.51.57,22.07-.94-7.4-1.62-15.11-2.22-23.26Z"/>
  <path class="st2" d="M777.31,1274.29c1.25,1.45,3.06,3.09,3.71,5.1,1.62,5.03,4.27,7.35,9.78,5.36-2.07,1.4-4.35,2.55-7.09,3.94-2.32-5.1-4.35-9.57-6.4-14.4Z"/>
  <path class="st2" d="M971.07,345.43c.68.39,1.77,1.24,1.78,2.1.07,5.27-.11,10.55-.47,16.14-.65-5.72-1.02-11.74-1.31-18.23Z"/>
  <path class="st2" d="M1080.89,615.58c-.67-.4-1.74-1.26-1.75-2.13-.07-5.26.11-10.53.47-16.11.64,5.72,1,11.74,1.28,18.24Z"/>
  <path class="st2" d="M760.15,1238.32c3.12,5.5,6.25,11.37,9.14,17.44-3.2-5.55-6.16-11.32-9.14-17.44Z"/>
  <path class="st2" d="M1080.04,679.6c-.1-5.55-.05-11.47.38-17.52.17,5.63-.03,11.39-.38,17.52Z"/>
  <path class="st2" d="M715.02,1157.36c2.98,4.39,6,9.13,9.01,14.25-3-4.38-5.98-9.14-9.01-14.25Z"/>
  <path class="st2" d="M927.23,1154.75c2.52-4.44,5.33-9.04,8.48-13.67-2.5,4.48-5.35,9-8.48,13.67Z"/>
  <path class="st2" d="M657.08,1072.33c2.94,3.42,5.94,7.18,8.93,11.31-2.96-3.41-5.91-7.19-8.93-11.31Z"/>
  <path class="st2" d="M987.18,1045.75c1.54-4.39,3.34-9,5.49-13.68-1.51,4.44-3.37,8.95-5.49,13.68Z"/>
  <path class="st2" d="M578.02,979.36c2.94,2.74,5.98,5.8,9.01,9.22-2.98-2.73-5.95-5.81-9.01-9.22Z"/>
  <path class="st2" d="M1008.69,302.7c-2.06-3.84-4.14-8.05-6-12.47,2.15,3.89,4.06,8,6,12.47Z"/>
  <path class="st2" d="M862.38,1233.01c2.46-2.91,5.25-5.92,8.38-8.94-2.45,2.94-5.26,5.89-8.38,8.94Z"/>
  <path class="st2" d="M976.93,235.67c-2.31-3.74-4.64-7.83-6.94-12.31,2.32,3.73,4.63,7.84,6.94,12.31Z"/>
  <path class="st2" d="M996.7,275.71c-2.06-3.52-4.15-7.39-6-11.47,2.15,3.56,4.06,7.34,6,11.47Z"/>
  <path class="st2" d="M589.05,991.34c2.6,2.41,5.3,5.14,7.99,8.23-2.64-2.39-5.27-5.15-7.99-8.23Z"/>
  <path class="st2" d="M877.29,1217.84c2.16-2.85,4.63-5.81,7.45-8.79-2.14,2.88-4.64,5.78-7.45,8.79Z"/>
  <path class="st2" d="M770.04,1258.35c1.96,3.48,3.92,7.33,5.82,11.58-1.98-3.47-3.9-7.34-5.82-11.58Z"/>
  <path class="st2" d="M643.97,1055.39c2.29,2.42,4.66,5.17,7.01,8.29-2.33-2.4-4.63-5.18-7.01-8.29Z"/>
  <path class="st2" d="M849.37,1245c2.07-2.29,4.46-4.66,7.22-7.03-2.06,2.32-4.48,4.63-7.22,7.03Z"/>
  <path class="st2" d="M513.22,915.26c2.49,1.84,5.1,3.99,7.71,6.49-2.53-1.83-5.06-4-7.71-6.49Z"/>
  <path class="st2" d="M861.62,381.93c-2.9.11-6.16.05-9.54-.37,2.98-.18,6.08,0,9.54.37Z"/>
  <path class="st2" d="M795.62,382.12c-2.55.65-5.51,1.22-8.58,1.48,2.65-.73,5.41-1.14,8.58-1.48Z"/>
  <path class="st2" d="M806.62,381.13c-2.38.55-5.2,1.02-8.3,1.22,2.43-.61,5.15-.96,8.3-1.22Z"/>
  <path class="st2" d="M1013.72,314.7c-1.42-2.5-2.85-5.36-4.06-8.44,1.5,2.54,2.77,5.31,4.06,8.44Z"/>
  <path class="st2" d="M968.96,220.65c-1.65-2.4-3.32-5.16-4.97-8.29,1.66,2.39,3.31,5.16,4.97,8.29Z"/>
  <path class="st2" d="M747.13,1213.33c1.62,2.41,3.26,5.18,4.87,8.33-1.63-2.41-3.24-5.19-4.87-8.33Z"/>
  <path class="st2" d="M952.49,1114.15c1.06-2.56,2.4-5.32,4.1-8.12-1.04,2.61-2.42,5.27-4.1,8.12Z"/>
  <path class="st2" d="M697.98,1130.4c1.65,2.04,3.36,4.43,5.06,7.19-1.67-2.03-3.34-4.44-5.06-7.19Z"/>
  <path class="st2" d="M738.99,1198.38c1.65,2.4,3.33,5.16,4.99,8.3-1.67-2.4-3.32-5.17-4.99-8.3Z"/>
  <path class="st2" d="M503.2,906.27c2.16,1.49,4.44,3.3,6.74,5.45-2.2-1.48-4.41-3.31-6.74-5.45Z"/>
  <path class="st2" d="M613.06,1018.33c1.93,1.77,3.95,3.85,5.95,6.31-1.96-1.75-3.92-3.87-5.95-6.31Z"/>
  <path class="st2" d="M599.02,1002.36c1.95,1.74,3.99,3.79,6.02,6.21-1.98-1.72-3.96-3.81-6.02-6.21Z"/>
  <path class="st2" d="M710.05,1149.34c1.63,2.08,3.3,4.5,4.95,7.3-1.65-2.07-3.28-4.51-4.95-7.3Z"/>
  <path class="st2" d="M982.15,1056.75c.8-2.4,1.86-5.03,3.24-7.74-.78,2.45-1.88,4.98-3.24,7.74Z"/>
  <path class="st2" d="M948.94,185.67c-1.63-2.09-3.29-4.52-4.93-7.33,1.65,2.08,3.27,4.53,4.93,7.33Z"/>
  <path class="st2" d="M943.27,1129.81c1.1-2.47,2.49-5.11,4.23-7.8-1.09,2.51-2.51,5.07-4.23,7.8Z"/>
  <path class="st2" d="M817.32,1269.92c1.77-1.61,3.89-3.26,6.37-4.9-1.76,1.63-3.9,3.24-6.37,4.9Z"/>
  <path class="st2" d="M1076.86,557.64c-.54-1.75-1-3.91-1.21-6.34.6,1.8.94,3.87,1.21,6.34Z"/>
  <path class="st0" d="M933.04,160.62c-.26.37-.58.41-1.38.5-1.16-1.78-1.85-3.6-2.59-5.77-.06-.35-.07-.33-.07-.33,1.33,1.76,2.65,3.51,4.03,5.6Z"/>
  <path class="st2" d="M887.27,1206.81c1.15-1.84,2.61-3.79,4.41-5.77-1.13,1.87-2.62,3.76-4.41,5.77Z"/>
  <path class="st2" d="M630.04,1038.34c1.61,1.44,3.28,3.2,4.95,5.33-1.64-1.43-3.25-3.22-4.95-5.33Z"/>
  <path class="st2" d="M495.19,899.27c1.83,1.16,3.79,2.62,5.76,4.44-1.87-1.14-3.75-2.64-5.76-4.44Z"/>
  <path class="st2" d="M619.06,1025.33c1.61,1.42,3.29,3.16,4.97,5.26-1.64-1.41-3.27-3.17-4.97-5.26Z"/>
  <path class="st2" d="M607,1011.36c1.62,1.4,3.33,3.13,5.03,5.21-1.65-1.39-3.3-3.14-5.03-5.21Z"/>
  <path class="st2" d="M731.04,1184.34c1.32,1.73,2.66,3.82,3.99,6.27-1.33-1.73-2.65-3.82-3.99-6.27Z"/>
  <path class="st2" d="M956.02,197.62c-1.33-1.71-2.7-3.78-4.05-6.21,1.35,1.71,2.69,3.79,4.05,6.21Z"/>
  <path class="st2" d="M797.35,1281.98c1.76-1.32,3.87-2.65,6.35-3.96-1.75,1.33-3.87,2.64-6.35,3.96Z"/>
  <path class="st2" d="M756.1,1230.33c1.28,1.82,2.56,4,3.79,6.56-1.29-1.81-2.54-4.01-3.79-6.56Z"/>
  <path class="st2" d="M960.02,204.62c-1.32-1.74-2.68-3.83-4-6.29,1.34,1.73,2.66,3.84,4,6.29Z"/>
  <path class="st2" d="M1001.72,286.72c-1.08-1.52-2.17-3.39-3.04-5.47,1.16,1.56,2.1,3.35,3.04,5.47Z"/>
  <path class="st2" d="M727.01,1177.36c1.32,1.73,2.68,3.8,4.02,6.25-1.34-1.72-2.66-3.81-4.02-6.25Z"/>
  <path class="st2" d="M963.99,211.64c-1.32-1.75-2.66-3.84-3.98-6.31,1.34,1.74,2.65,3.85,3.98,6.31Z"/>
  <path class="st2" d="M936.34,1140.9c.76-1.84,1.82-3.84,3.22-5.89-.74,1.87-1.84,3.8-3.22,5.89Z"/>
  <path class="st2" d="M681.05,1105.33c1.31,1.38,2.67,3.1,4.03,5.17-1.32-1.37-2.65-3.11-4.03-5.17Z"/>
  <path class="st2" d="M962.88,410.68c-1.84-.77-3.83-1.83-5.87-3.25,1.87.75,3.79,1.85,5.87,3.25Z"/>
  <path class="st2" d="M920.27,1164.82c.84-1.81,1.97-3.76,3.46-5.73-.82,1.85-1.99,3.72-3.46,5.73Z"/>
  <path class="st2" d="M811.29,1273.87c1.42-1.29,3.18-2.6,5.31-3.9-1.41,1.3-3.19,2.59-5.31,3.9Z"/>
  <path class="st2" d="M836.32,1255.94c1.09-1.28,2.51-2.63,4.29-3.96-1.08,1.31-2.52,2.6-4.29,3.96Z"/>
  <path class="st2" d="M842.36,1251c1.07-1.3,2.45-2.67,4.2-4.04-1.05,1.32-2.46,2.65-4.2,4.04Z"/>
  <path class="st2" d="M905.32,1184.9c.77-1.53,1.85-3.19,3.27-4.89-.76,1.56-1.86,3.16-3.27,4.89Z"/>
  <path class="st2" d="M893.27,1199.82c.82-1.5,1.94-3.13,3.42-4.77-.8,1.54-1.96,3.1-3.42,4.77Z"/>
  <path class="st2" d="M639.07,1049.32c1.28,1.09,2.62,2.51,3.96,4.28-1.3-1.08-2.6-2.52-3.96-4.28Z"/>
  <path class="st2" d="M635.03,1044.35c1.29,1.09,2.64,2.5,3.99,4.28-1.31-1.08-2.62-2.52-3.99-4.28Z"/>
  <path class="st2" d="M488.17,893.28c1.5.84,3.12,1.98,4.75,3.48-1.53-.82-3.08-2-4.75-3.48Z"/>
  <path class="st2" d="M958.29,1103.83c.45-1.47,1.18-3.11,2.23-4.81-.44,1.51-1.19,3.08-2.23,4.81Z"/>
  <path class="st2" d="M669.02,1088.36c1.24,1.2,2.55,2.72,3.81,4.63-1.28-1.18-2.51-2.74-3.81-4.63Z"/>
  <path class="st2" d="M482.17,888.28c1.5.82,3.13,1.95,4.78,3.43-1.54-.8-3.09-1.96-4.78-3.43Z"/>
  <path class="st2" d="M476.09,883.34c1.52.81,3.17,1.92,4.85,3.39-1.56-.79-3.14-1.94-4.85-3.39Z"/>
  <path class="st2" d="M952.88,404.69c-1.49-.38-3.15-1.04-4.88-2.04,1.52.36,3.12,1.06,4.88,2.04Z"/>
  <path class="st2" d="M951.95,190.68c-.98-1.09-1.99-2.51-2.98-4.29,1,1.08,1.98,2.52,2.98,4.29Z"/>
  <path class="st2" d="M724.04,1172.33c.98,1.1,1.98,2.53,2.96,4.33-.99-1.09-1.96-2.54-2.96-4.33Z"/>
  <path class="st2" d="M736.12,1193.31c.96,1.11,1.93,2.56,2.87,4.37-.97-1.1-1.92-2.57-2.87-4.37Z"/>
  <path class="st2" d="M706.97,1144.38c1,1.07,2.04,2.47,3.06,4.24-1.02-1.06-2.02-2.48-3.06-4.24Z"/>
  <path class="st2" d="M961.45,1098.08c.42-1.53,1.13-3.24,2.2-5.02-.4,1.57-1.16,3.2-2.2,5.02Z"/>
  <path class="st2" d="M743.96,1207.39c.97,1.16,1.97,2.66,2.91,4.55-1-1.14-1.94-2.68-2.91-4.55Z"/>
  <path class="st2" d="M472.18,880.26c1.16.49,2.45,1.28,3.76,2.42-1.19-.47-2.41-1.3-3.76-2.42Z"/>
  <path class="st2" d="M467.11,876.32c1.18.49,2.49,1.27,3.83,2.41-1.22-.46-2.46-1.29-3.83-2.41Z"/>
  <path class="st2" d="M463.08,873.32c1.18.47,2.51,1.23,3.87,2.34-1.22-.45-2.47-1.25-3.87-2.34Z"/>
  <path class="st2" d="M966.88,413.7c-1.18-.47-2.49-1.25-3.82-2.38,1.21.45,2.46,1.27,3.82,2.38Z"/>
  <path class="st2" d="M832.37,1259.01c.76-.98,1.83-2.01,3.27-3.02-.74,1-1.85,1.98-3.27,3.02Z"/>
  <path class="st2" d="M994.16,1029.76c.16-1.09.57-2.39,1.28-3.76-.14,1.14-.59,2.34-1.28,3.76Z"/>
  <path class="st2" d="M828.37,1262.02c.77-.97,1.86-1.99,3.32-2.99-.76.99-1.88,1.96-3.32,2.99Z"/>
  <path class="st2" d="M898.26,1193.8c.51-1.16,1.31-2.44,2.47-3.74-.49,1.19-1.33,2.4-2.47,3.74Z"/>
  <path class="st2" d="M625.02,1032.34c.97.71,2.01,1.74,3.06,3.12-.99-.7-1.99-1.75-3.06-3.12Z"/>
  <path class="st2" d="M824.36,1265.01c.78-.97,1.87-1.98,3.34-2.97-.76.99-1.89,1.96-3.34,2.97Z"/>
  <path class="st2" d="M685.15,1111.26c.93.81,1.89,1.95,2.83,3.44-.95-.8-1.87-1.96-2.83-3.44Z"/>
  <path class="st2" d="M651.01,1064.35c.96.77,1.99,1.85,2.99,3.29-.99-.75-1.96-1.86-2.99-3.29Z"/>
  <path class="st2" d="M912.27,1175.83c.47-1.17,1.22-2.48,2.33-3.82-.45,1.2-1.24,2.44-2.33,3.82Z"/>
  <path class="st2" d="M917.33,1168.91c.45-1.19,1.19-2.51,2.29-3.88-.43,1.22-1.21,2.48-2.29,3.88Z"/>
  <path class="st2" d="M654.05,1068.32c.96.77,1.97,1.85,2.98,3.3-.98-.75-1.95-1.87-2.98-3.3Z"/>
  <path class="st2" d="M666.05,1084.32c.95.78,1.96,1.89,2.94,3.35-.98-.77-1.93-1.9-2.94-3.35Z"/>
  <path class="st2" d="M924.36,1158.94c.42-1.2,1.14-2.54,2.2-3.94-.4,1.23-1.16,2.51-2.2,3.94Z"/>
  <path class="st2" d="M689.99,1118.36c.95.84,1.94,2,2.88,3.55-.98-.82-1.91-2.02-2.88-3.55Z"/>
  <path class="st2" d="M676.12,1098.27c.94.8,1.91,1.92,2.87,3.4-.96-.79-1.89-1.93-2.87-3.4Z"/>
  <path class="st2" d="M909.26,1179.82c.47-1.17,1.24-2.46,2.36-3.8-.45,1.2-1.26,2.44-2.36,3.8Z"/>
  <path class="st2" d="M695.98,1127.35c.65.46,1.33,1.23,1.98,2.36-.67-.44-1.31-1.25-1.98-2.36Z"/>
  <path class="st2" d="M679,1102.34c.65.44,1.34,1.2,2.02,2.31-.67-.43-1.32-1.21-2.02-2.31Z"/>
  <path class="st2" d="M806.28,1276.91c.48-.63,1.28-1.28,2.44-1.9-.47.65-1.3,1.27-2.44,1.9Z"/>
  <path class="st2" d="M687.98,1115.35c.65.45,1.34,1.22,2,2.34-.67-.44-1.32-1.23-2-2.34Z"/>
  <path class="st2" d="M950.33,1117.91c.11-.84.49-1.82,1.21-2.87-.09.86-.51,1.8-1.21,2.87Z"/>
  <path class="st2" d="M948.45,1121.12c.11-.88.49-1.93,1.24-3.03-.08.92-.52,1.89-1.24,3.03Z"/>
  <path class="st2" d="M693.98,1124.34c.66.45,1.34,1.22,2.01,2.35-.68-.44-1.33-1.24-2.01-2.35Z"/>
  <path class="st2" d="M941.32,1132.92c.13-.84.55-1.83,1.31-2.88-.11.87-.57,1.8-1.31,2.88Z"/>
  <path class="st2" d="M674.02,1095.32c.65.43,1.35,1.17,2.04,2.25-.67-.42-1.33-1.18-2.04-2.25Z"/>
  <path class="st2" d="M703.06,1138.29c.64.46,1.31,1.23,1.96,2.36-.66-.45-1.3-1.25-1.96-2.36Z"/>
  <path class="st2" d="M705.02,1141.32c.64.47,1.31,1.25,1.95,2.39-.66-.46-1.29-1.27-1.95-2.39Z"/>
  <path class="st2" d="M915.25,1171.82c.18-.82.64-1.76,1.45-2.75-.16.85-.66,1.73-1.45,2.75Z"/>
  <path class="st2" d="M970.13,416.57c-.6-.14-1.31-.57-2.04-1.35.63.12,1.28.59,2.04,1.35Z"/>
  <path class="st2" d="M751.97,1222.32c.49.24.99.79,1.26,1.5-.57-.29-.91-.74-1.26-1.5Z"/>
  <path class="st2" d="M988,257.71c-.49-.25-.97-.81-1.23-1.53.56.3.9.76,1.23,1.53Z"/>
  <path class="st2" d="M984.03,249.69c-.49-.25-.97-.81-1.23-1.53.56.3.9.76,1.23,1.53Z"/>
  <path class="st2" d="M980.01,241.7c-.49-.25-.99-.79-1.26-1.51.57.29.91.75,1.26,1.51Z"/>
  <path class="st2" d="M903.5,1187.24c.09-.62.46-1.38,1.18-2.18-.07.65-.48,1.35-1.18,2.18Z"/>
  <path class="st2" d="M971.84,417.46c-.02.06-.29.24-.69.27.06-.15.25-.15.69-.27Z"/>
  <path class="st0" d="M929.03,154.99s-.17.01-.1.02c.07,0,.08-.02.1-.02Z"/>
  <path class="st1" d="M969.17,667.04c-5.55-28.41-1.36-54.39,16.65-77.19,7.23-9.16,16.61-15.54,28.6-16.48,14.57-1.14,25.21,6.03,33.23,17.47,8.56,12.22,12.14,26.15,12.56,40.88.64,22.85-4.66,43.98-20.09,61.52-9.6,10.91-21.4,17.52-36.63,14.54-11.55-2.26-19.84-9.43-25.41-19.32-3.71-6.57-5.94-13.98-8.9-21.42Z"/>
  <path class="st5" d="M905.46,686.46c-11.37,11.09-24.1,17.22-40.02,13.47-9.49-2.23-16.77-7.93-22.69-15.44-8.92-11.31-13.52-24.43-15.11-38.56-2.96-26.26,1.82-50.79,17.86-72.34,3.24-4.35,7.27-8.32,11.55-11.67,18.33-14.35,40.57-11.85,55.46,6.11,11.42,13.78,16.12,30.12,16.81,47.64,1.04,26.42-5.36,50.49-23.85,70.78M916.15,665.57c.49-.87,1.11-1.68,1.47-2.6,6.61-17.09,10.08-34.54,7.76-53.06-1.7-13.62-5.08-26.45-13.54-37.41-7.96-10.31-18.05-17.47-31.78-16.55-14,.94-23.89,9.31-32.08,19.82-10.61,13.63-15.54,29.43-17.28,46.48-2.28,22.28,1.48,42.89,15.3,61.13,8.35,11.02,24.63,17.24,36.66,13.35,15.68-5.06,25.8-16.3,33.5-31.16Z"/>
  <path class="st3" d="M915.94,665.88c-7.49,14.55-17.61,25.79-33.29,30.86-12.03,3.89-28.31-2.34-36.66-13.35-13.82-18.24-17.57-38.85-15.3-61.13,1.74-17.04,6.67-32.85,17.28-46.48,8.19-10.51,18.08-18.88,32.08-19.82,13.73-.92,23.82,6.23,31.78,16.55,8.46,10.95,11.84,23.78,13.54,37.41,2.32,18.52-1.15,35.97-7.76,53.06-.36.92-.97,1.74-1.68,2.91Z"/>
</svg>